# File created by Blade
# Date/Time:  Wed Jan 28 16:58:26 2015
#---------------------------------------------------------
:version 1.10
:name HOM
:units
  mass 1.0
  length 1.000000
  angle deg
:documentation
     Acclaim Skeleton File
:root
   axis xyz
   order TX TY TZ RX RY RZ
   position 0.000000 0.000000 0.000000
   orientation 0 0 0
:bonedata
   begin
      id 1
      name Spine_dum
      direction 0.000000 1.000000 0.000000
      length 9.621153
      axis 0.0 0.0 0.0 xyz
   end
   begin
      id 2
      name LeftUpLeg_dum
      direction 1.000000 0.000000 0.000000
      length 2.700595
      axis 0.0 0.0 0.0 xyz
   end
   begin
      id 3
      name RightUpLeg_dum
      direction -1.000000 0.000000 0.000000
      length 2.700595
      axis 0.0 0.0 0.0 xyz
   end
   begin
      id 4
      name Spine
      direction 0.000000 1.000000 0.000000
      length 0.000000
      axis 0.0 0.0 0.0 xyz
      dof rx ry rz
   end
   begin
      id 5
      name Spine_dum1
      direction 0.000000 1.000000 0.000000
      length 12.771951
      axis 0.0 0.0 0.0 xyz
   end
   begin
      id 6
      name Spine_dum2
      direction 0.000000 1.000000 0.000000
      length 7.400569
      axis 0.0 0.0 0.0 xyz
   end
   begin
      id 7
      name Spine_dum3
      direction 0.000000 1.000000 0.000000
      length 7.400569
      axis 0.0 0.0 0.0 xyz
   end
   begin
      id 8
      name Head
      direction 0.000000 1.000000 0.000000
      length 4.527550
      axis 0.0 0.0 0.0 xyz
      dof rx ry rz
   end
   begin
      id 9
      name LeftShoulder
      direction 1.000000 0.000000 0.000000
      length 8.349299
      axis 0.0 0.0 -90.0 xyz
      dof rx ry rz
   end
   begin
      id 10
      name LeftArm
      direction 1.000000 0.000000 0.000000
      length 11.334839
      axis 0.0 0.0 -90.0 xyz
      dof rx ry rz
   end
   begin
      id 11
      name LeftForeArm
      direction 1.000000 0.000000 0.000000
      length 9.694182
      axis 0.0 0.0 -90.0 xyz
      dof ry rz rx
   end
   begin
      id 12
      name LeftHand
      direction 0.000000 0.000000 0.000000
      length 0.000000
      axis 0.0 0.0 -90.0 xyz
      dof rx ry rz
   end
   begin
      id 13
      name LeftHand_dum1
      direction 0.000000 0.000000 0.000000
      length 0.000000
      axis 0.0 0.0 -90.0 xyz
   end
   begin
      id 14
      name LeftHand_dum2
      direction 1.000000 0.000000 0.000000
      length 3.937000
      axis 0.0 0.0 -90.0 xyz
   end
   begin
      id 15
      name LeftHandThumb1
      direction 0.000000 0.000000 1.000000
      length 3.937000
      axis 0.0 0.0 -90.0 xyz
      dof rx rz ry
   end
   begin
      id 16
      name RightShoulder
      direction -1.000000 0.000000 0.000000
      length 8.349299
      axis 0.0 0.0 90.0 xyz
      dof rx ry rz
   end
   begin
      id 17
      name RightArm
      direction -1.000000 0.000000 0.000000
      length 11.334839
      axis 0.0 0.0 90.0 xyz
      dof rx ry rz
   end
   begin
      id 18
      name RightForeArm
      direction -1.000000 0.000000 0.000000
      length 9.694182
      axis 0.0 0.0 90.0 xyz
      dof ry rz rx
   end
   begin
      id 19
      name RightHand
      direction 0.000000 0.000000 0.000000
      length 0.000000
      axis 0.0 0.0 90.0 xyz
      dof rx ry rz
   end
   begin
      id 20
      name RightHand_dum1
      direction 0.000000 0.000000 0.000000
      length 0.000000
      axis 0.0 0.0 90.0 xyz
   end
   begin
      id 21
      name RightHand_dum2
      direction -1.000000 0.000000 0.000000
      length 3.937000
      axis 0.0 0.0 90.0 xyz
   end
   begin
      id 22
      name RightHandThumb1
      direction 0.000000 0.000000 1.000000
      length 3.937000
      axis 0.0 0.0 90.0 xyz
      dof rx rz ry
   end
   begin
      id 23
      name LeftUpLeg
      direction 0.000000 -1.000000 0.000000
      length 16.757176
      axis 0.0 0.0 0.0 xyz
      dof rx ry rz
   end
   begin
      id 24
      name LeftLeg
      direction 0.000000 -1.000000 0.000000
      length 16.759153
      axis 0.0 0.0 0.0 xyz
      dof rx ry rz
   end
   begin
      id 25
      name LeftFoot
      direction 0.000000 -0.258819 0.965926
      length 5.841289
      axis 15.0 0.0 0.0 xyz
      dof rx ry rz
   end
   begin
      id 26
      name LeftToeBase
      direction 0.000000 0.000000 1.000000
      length 2.952750
      axis 0.0 0.0 0.0 xyz
      dof rx ry rz
   end
   begin
      id 27
      name RightUpLeg
      direction 0.000000 -1.000000 0.000000
      length 16.757176
      axis 0.0 0.0 0.0 xyz
      dof rx ry rz
   end
   begin
      id 28
      name RightLeg
      direction 0.000000 -1.000000 0.000000
      length 16.759153
      axis 0.0 0.0 0.0 xyz
      dof rx ry rz
   end
   begin
      id 29
      name RightFoot
      direction 0.000000 -0.258819 0.965926
      length 5.841289
      axis 15.0 0.0 0.0 xyz
      dof rx ry rz
   end
   begin
      id 30
      name RightToeBase
      direction 0.000000 0.000000 1.000000
      length 2.952750
      axis 0.0 0.0 0.0 xyz
      dof rx ry rz
   end
:hierarchy
   begin
      root Spine_dum LeftUpLeg_dum RightUpLeg_dum
      Spine_dum Spine
      LeftUpLeg_dum LeftUpLeg
      RightUpLeg_dum RightUpLeg
      Spine Spine_dum1 Spine_dum2 Spine_dum3
      Spine_dum1 Head
      Spine_dum2 LeftShoulder
      Spine_dum3 RightShoulder
      LeftShoulder LeftArm
      LeftArm LeftForeArm
      LeftForeArm LeftHand
      LeftHand LeftHand_dum1 LeftHand_dum2
      LeftHand_dum1 LeftHandThumb1
      RightShoulder RightArm
      RightArm RightForeArm
      RightForeArm RightHand
      RightHand RightHand_dum1 RightHand_dum2
      RightHand_dum1 RightHandThumb1
      LeftUpLeg LeftLeg
      LeftLeg LeftFoot
      LeftFoot LeftToeBase
      RightUpLeg RightLeg
      RightLeg RightFoot
      RightFoot RightToeBase
   end

# File created by Blade
# Date/Time:  Wed Jan 28 16:58:32 2015
# Frame Rate: 120.000 fps
#------------------------------------------------------
:FULLY-SPECIFIED
:DEGREES
2817
root 12.525138 35.912556 -20.116145 159.763942 -8.149843 -164.185851
Spine 43.917363 -11.896100 8.025050
Head 7.425778 0.780549 37.155633
LeftShoulder -0.104940 -3.350065 20.965691
LeftArm 63.378248 -18.471389 -79.548531
LeftForeArm -9.514224 -0.000000 70.344775
LeftHand 2.780295 -0.000000 20.811518
LeftHandThumb1 -26.253704 0.000000 33.147579
RightShoulder -13.693003 -4.836451 -1.066813
RightArm 15.320807 -31.295637 70.114020
RightForeArm -6.998918 -0.000000 33.408733
RightHand -13.078722 -0.000000 10.982463
RightHandThumb1 -24.326973 -0.000000 -32.862282
LeftUpLeg 11.183242 18.094990 16.992944
LeftLeg 24.869894 -0.000000 -0.000000
LeftFoot -22.738037 2.087777 -11.732615
LeftToeBase 17.044840 -0.000000 -0.000000
RightUpLeg -100.471476 4.081875 20.296939
RightLeg 129.199745 -0.000000 -0.000000
RightFoot 7.586706 -13.512416 8.736863
RightToeBase -2.158436 -0.000000 0.000000
2818
root 12.551063 35.897470 -20.118671 159.604739 -8.512025 -164.283495
Spine 43.933995 -11.669201 7.541821
Head 7.636850 0.881472 37.551675
LeftShoulder -0.132511 -3.684206 21.289496
LeftArm 63.169104 -18.096464 -79.828467
LeftForeArm -9.123112 -0.000000 70.370213
LeftHand 2.864107 0.000000 20.801466
LeftHandThumb1 -26.253704 0.000000 33.147579
RightShoulder -13.571736 -4.976820 -0.683931
RightArm 15.448971 -31.115960 70.134555
RightForeArm -6.961927 -0.000000 33.064911
RightHand -13.155240 -0.000000 10.655617
RightHandThumb1 -24.326973 -0.000000 -32.862282
LeftUpLeg 10.982985 18.047601 17.059772
LeftLeg 25.492962 -0.000000 -0.000000
LeftFoot -22.839520 1.172442 -12.133622
LeftToeBase 17.589310 -0.000000 -0.000000
RightUpLeg -100.473896 3.867915 20.330045
RightLeg 128.981075 -0.000000 -0.000000
RightFoot 7.870123 -13.480623 8.862689
RightToeBase -2.116520 -0.000000 0.000000
2819
root 12.561768 35.888211 -20.125784 159.427707 -8.711458 -164.374339
Spine 43.937157 -11.347436 7.293848
Head 7.866335 0.985529 37.608217
LeftShoulder -0.064756 -4.100380 21.400474
LeftArm 62.863304 -17.728531 -80.152011
LeftForeArm -8.541644 -0.000000 70.499258
LeftHand 2.794221 -0.000000 20.700403
LeftHandThumb1 -26.253704 0.000000 33.147579
RightShoulder -13.538471 -5.063138 -0.514493
RightArm 15.567996 -31.029010 70.162282
RightForeArm -6.913504 0.000000 32.648539
RightHand -13.309786 -0.000000 10.354149
RightHandThumb1 -24.326973 -0.000000 -32.862282
LeftUpLeg 10.955134 18.076532 17.183467
LeftLeg 25.954972 -0.000000 -0.000000
LeftFoot -22.930019 0.188693 -12.626668
LeftToeBase 18.180809 -0.000000 -0.000000
RightUpLeg -100.320620 3.662520 20.429310
RightLeg 128.710933 -0.000000 -0.000000
RightFoot 8.121672 -13.425137 9.076795
RightToeBase -2.321508 -0.000000 0.000000
2820
root 12.543937 35.883102 -20.133925 159.167567 -8.519231 -164.540326
Spine 44.086241 -10.847879 7.232742
Head 8.145877 1.114015 37.174321
LeftShoulder -0.046668 -4.266534 21.283410
LeftArm 62.814620 -17.411360 -80.480761
LeftForeArm -8.026520 -0.000000 70.609112
LeftHand 2.819939 -0.000000 20.777818
LeftHandThumb1 -26.253704 0.000000 33.147579
RightShoulder -13.429841 -5.067278 -0.710147
RightArm 15.721881 -31.117782 70.175664
RightForeArm -6.738820 0.000000 32.177356
RightHand -13.421904 -0.000000 10.096218
RightHandThumb1 -24.326973 -0.000000 -32.862282
LeftUpLeg 11.311810 18.373052 17.369888
LeftLeg 26.157210 -0.000000 -0.000000
LeftFoot -22.967145 -0.632096 -13.033396
LeftToeBase 18.741679 -0.000000 -0.000000
RightUpLeg -99.885751 3.618734 20.573002
RightLeg 128.385183 -0.000000 -0.000000
RightFoot 8.381651 -13.238915 9.142065
RightToeBase -2.234821 -0.000000 0.000000
2821
root 12.541988 35.875568 -20.149711 158.923690 -8.689565 -164.860245
Spine 44.188174 -10.389398 6.633920
Head 8.525460 1.218041 37.187211
LeftShoulder -0.080815 -4.320082 21.425324
LeftArm 62.821076 -17.085013 -80.718578
LeftForeArm -7.492900 -0.000000 70.661930
LeftHand 2.759948 -0.000000 20.681688
LeftHandThumb1 -26.253704 0.000000 33.147579
RightShoulder -13.349857 -4.999102 -0.585935
RightArm 15.807169 -31.377012 70.241573
RightForeArm -6.617031 -0.000000 31.638947
RightHand -13.350382 0.000000 9.904299
RightHandThumb1 -24.326973 -0.000000 -32.862282
LeftUpLeg 11.577663 18.319178 17.266063
LeftLeg 26.337521 -0.000000 -0.000000
LeftFoot -22.877015 -1.447188 -13.347456
LeftToeBase 19.090084 -0.000000 -0.000000
RightUpLeg -99.535317 3.331912 20.475405
RightLeg 128.128865 -0.000000 -0.000000
RightFoot 8.532095 -13.096074 9.426712
RightToeBase -2.393085 -0.000000 0.000000
2822
root 12.534459 35.868074 -20.166315 158.687716 -8.840856 -165.248231
Spine 44.270938 -9.876596 5.951590
Head 8.938919 1.303313 37.192139
LeftShoulder -0.126573 -4.189347 21.533742
LeftArm 62.978616 -16.770411 -80.874080
LeftForeArm -7.171493 -0.000000 70.695665
LeftHand 2.753547 -0.000000 20.891874
LeftHandThumb1 -26.253704 0.000000 33.147579
RightShoulder -13.271476 -4.936007 -0.448736
RightArm 15.909499 -31.649774 70.254869
RightForeArm -6.783260 -0.000000 31.164563
RightHand -13.436607 -0.000000 10.094085
RightHandThumb1 -24.326973 -0.000000 -32.862282
LeftUpLeg 11.893645 18.196827 17.042071
LeftLeg 26.435523 -0.000000 -0.000000
LeftFoot -22.787652 -2.139727 -13.662628
LeftToeBase 19.505470 -0.000000 -0.000000
RightUpLeg -99.160992 3.014435 20.331211
RightLeg 127.872199 -0.000000 -0.000000
RightFoot 8.563987 -12.999692 9.746613
RightToeBase -1.979653 -0.000000 0.000000
2823
root 12.515759 35.863660 -20.184758 158.431763 -8.949795 -165.655223
Spine 44.377260 -9.350017 5.299028
Head 9.384643 1.433435 37.072345
LeftShoulder -0.194942 -4.120163 21.590171
LeftArm 63.070776 -16.417226 -80.897937
LeftForeArm -6.568995 -0.000000 70.668247
LeftHand 2.788878 0.000000 21.186245
LeftHandThumb1 -26.253704 0.000000 33.147579
RightShoulder -13.176688 -4.877843 -0.369636
RightArm 16.081189 -32.069468 70.142647
RightForeArm -6.923670 -0.000000 30.770131
RightHand -13.448440 -0.000000 10.152851
RightHandThumb1 -24.326973 -0.000000 -32.862282
LeftUpLeg 12.300134 17.964988 16.750744
LeftLeg 26.420395 -0.000000 -0.000000
LeftFoot -22.615515 -2.795176 -14.181325
LeftToeBase 20.036936 -0.000000 -0.000000
RightUpLeg -98.697248 2.635417 20.156284
RightLeg 127.633704 -0.000000 -0.000000
RightFoot 8.546961 -12.842132 10.043717
RightToeBase -1.943375 -0.000000 0.000000
